<svg width="512" height="512" viewBox="0 0 512 512" fill="none" xmlns="http://www.w3.org/2000/svg">
  <defs>
    <linearGradient id="bg" x1="64" y1="64" x2="448" y2="448" gradientUnits="userSpaceOnUse">
      <stop stop-color="#2563EB"/>
      <stop offset="1" stop-color="#0EA5E9"/>
    </linearGradient>
  </defs>
  <rect x="32" y="32" width="448" height="448" rx="110" fill="url(#bg)"/>
  <rect x="122" y="128" width="268" height="256" rx="24" fill="white" fill-opacity="0.95"/>
  <rect x="150" y="168" width="150" height="16" rx="8" fill="#1E3A8A"/>
  <rect x="150" y="198" width="210" height="12" rx="6" fill="#93C5FD"/>
  <rect x="150" y="224" width="190" height="12" rx="6" fill="#BFDBFE"/>
  <rect x="150" y="250" width="175" height="12" rx="6" fill="#DBEAFE"/>
  <circle cx="190" cy="321" r="42" fill="#2563EB"/>
  <path d="M190 304C184.8 304 180.6 308.2 180.6 313.4C180.6 317.5 183.2 321 186.8 322.3V330.8C186.8 332.7 188.2 334.2 190 334.2C191.8 334.2 193.2 332.7 193.2 330.8V322.3C196.8 321 199.4 317.5 199.4 313.4C199.4 308.2 195.2 304 190 304Z" fill="white"/>
  <path d="M174.5 321.2L184.6 331.5L205.8 310.2" stroke="white" stroke-width="8" stroke-linecap="round" stroke-linejoin="round"/>
  <path d="M248 318C248 310.3 254.3 304 262 304H350C357.7 304 364 310.3 364 318V326C364 333.7 357.7 340 350 340H262C254.3 340 248 333.7 248 326V318Z" fill="#E0F2FE"/>
  <rect x="258" y="316" width="84" height="12" rx="6" fill="#0369A1"/>
</svg>
